<svg width="184" height="176" viewBox="0 0 184 176" fill="none" xmlns="http://www.w3.org/2000/svg">
<g id="Group">
<g id="Group_2">
<path id="Vector" d="M154.166 146.323L105.191 97.9297L95.4938 107.744L144.468 156.137L154.166 146.323Z" fill="#699CFF"/>
<path id="Vector_2" d="M172.874 159.327L134.772 121.676C134.56 121.467 134.218 121.469 134.008 121.681L119.587 136.276C119.377 136.488 119.379 136.83 119.591 137.039L157.694 174.689C157.906 174.899 158.248 174.897 158.457 174.685L172.879 160.09C173.088 159.878 173.086 159.536 172.874 159.327Z" fill="#0E84E5"/>
<path id="Vector_3" d="M61.7848 122.268C95.4778 122.268 122.791 94.9543 122.791 61.2614C122.791 27.5684 95.4778 0.254883 61.7848 0.254883C28.0919 0.254883 0.77832 27.5684 0.77832 61.2614C0.77832 94.9543 28.0919 122.268 61.7848 122.268Z" fill="#0E84E5"/>
<path id="Vector_4" d="M61.7846 112.314C89.9799 112.314 112.837 89.4574 112.837 61.2621C112.837 33.0668 89.9799 10.21 61.7846 10.21C33.5892 10.21 10.7324 33.0668 10.7324 61.2621C10.7324 89.4574 33.5892 112.314 61.7846 112.314Z" fill="#D4E5FF"/>
</g>
<path id="Vector_5" d="M164.924 6.11097C150.614 1.47255 135.149 9.31749 130.492 23.6863C125.854 37.9963 133.698 53.461 148.067 58.1182C162.436 62.7753 177.861 54.8535 182.5 40.5428C187.139 26.2321 179.235 10.7492 164.924 6.11097ZM160.606 19.4328C162.208 19.952 163.619 20.9352 164.661 22.2577C165.703 23.5803 166.329 25.1825 166.46 26.8613C166.59 28.54 166.219 30.2196 165.393 31.6871C164.567 33.1546 163.324 34.3438 161.822 35.1038C160.319 35.8639 158.625 36.1607 156.954 35.9564C155.282 35.7522 153.709 35.0561 152.434 33.9566C151.159 32.8571 150.239 31.4036 149.791 29.7805C149.343 28.1574 149.387 26.4378 149.918 24.8398C151.351 20.4186 156.184 17.9998 160.606 19.4328ZM149.802 52.7662C145.048 51.2331 140.974 48.0948 138.279 43.8888C143.322 41.0234 148.595 40.2253 153.366 41.7715C158.136 43.3177 162.015 47.0176 164.341 52.3359C159.692 54.1614 154.552 54.3136 149.802 52.7662Z" fill="#418DF9"/>
<path id="Vector_6" d="M45.8171 136.512C43.3315 137.781 41.278 139.758 39.9161 142.194C38.5543 144.63 37.9454 147.415 38.1664 150.197C38.3873 152.978 39.4283 155.632 41.1576 157.823C42.8868 160.013 45.2268 161.641 47.8815 162.502C50.5362 163.362 53.3864 163.416 56.0718 162.657C58.7571 161.897 61.1569 160.358 62.9678 158.235C64.7786 156.112 65.9191 153.499 66.2451 150.728C66.5711 147.956 66.0679 145.15 64.7991 142.664C63.0948 139.334 60.1391 136.816 56.5804 135.663C53.0217 134.509 49.1509 134.815 45.8171 136.512ZM49.1035 142.95C49.8777 142.555 50.7518 142.399 51.6149 142.501C52.4781 142.603 53.2914 142.96 53.9517 143.525C54.612 144.09 55.0896 144.839 55.3239 145.676C55.5581 146.513 55.5385 147.4 55.2675 148.226C54.9964 149.052 54.4862 149.779 53.8016 150.314C53.1169 150.85 52.2886 151.17 51.4218 151.234C50.555 151.298 49.6886 151.103 48.9327 150.674C48.1768 150.245 47.5654 149.601 47.1759 148.824C46.6598 147.788 46.5727 146.591 46.9335 145.491C47.2943 144.391 48.074 143.478 49.1035 142.95V142.95ZM57.3265 159.06C55.0317 160.236 52.3995 160.577 49.8808 160.026C50.6755 157.139 52.3088 154.923 54.6148 153.746C56.9207 152.57 59.6864 152.504 62.4766 153.596C61.4455 155.96 59.6249 157.891 57.3265 159.06V159.06Z" fill="#418DF9"/>
</g>
</svg>
